PathFileType	4	(X/Y/Z)	pose_F01_0-91.trc
DataRate	CameraRate	NumFrames	NumMarkers	Units	OrigDataRate	OrigDataStartFrame	OrigNumFrames
30	30	12	21	m	30	52	91
Frame#	Time	CHip			RHip			RKnee			RAnkle			RBigToe			RSmallToe			RHeel			LHip			LKnee			LAnkle			LBigToe			LSmallToe			LHeel			Neck			Nose			RShoulder			RElbow			RWrist			LShoulder			LElbow			LWrist			
		X1	Y1	Z1	X2	Y2	Z2	X3	Y3	Z3	X4	Y4	Z4	X5	Y5	Z5	X6	Y6	Z6	X7	Y7	Z7	X8	Y8	Z8	X9	Y9	Z9	X10	Y10	Z10	X11	Y11	Z11	X12	Y12	Z12	X13	Y13	Z13	X14	Y14	Z14	X15	Y15	Z15	X16	Y16	Z16	X17	Y17	Z17	X18	Y18	Z18	X19	Y19	Z19	X20	Y20	Z20	X21	Y21	Z21	
52	1.7333333333333334	-0.22763836907877538	1.8268304790613954	-0.4291580634705339	-0.23805547844504732	1.8225805881872432	-0.3618901807547047																-0.21573307655713492	1.8280670535393009	-0.48757237149026134	-0.2058250358554345	1.713151232419401	-0.52160966810983	-0.18901216803712187	1.5911244420435464	-0.5966577793656774	-0.19473128912110077	1.5632486029053507	-0.6565175534029215	-0.18351274388730177	1.5721738758747446	-0.669300990342988	-0.18728196826250107	1.5804807608652451	-0.5720329423388756	-0.2238474339746741	1.9703497181860243	-0.46272501706897945	-0.22901798638942558	2.0325782020243204	-0.5374044730337879	-0.24412992350746635	1.9700801402418964	-0.3776450432062265	-0.25480072842923196	1.898244153507282	-0.33880405298430855	-0.2922318149848097	1.8837311230411136	-0.36614057743459866	-0.20165688112217653	1.9701946336817235	-0.5504228776693354	-0.19475313439055578	1.8973781830412575	-0.5583945835621797	-0.19197261778532837	1.8870150136247041	-0.6533658291396254
53	1.7666666666666666	-0.22603320027061408	1.8314130845649117	-0.4231835907455985	-0.23869142951176683	1.8259556006388207	-0.36232120969738807																-0.21310345192422567	1.8326135323110055	-0.48693512589722543	-0.20684889837482268	1.7144914469669486	-0.5207058968124036	-0.19051281237742348	1.5929935871148575	-0.5954870543519976	-0.19657847232564463	1.5642997388943203	-0.6548251073178343	-0.1855709840448849	1.574346960415263	-0.6673249093010796	-0.18899248108745992	1.5836566576064743	-0.5706060475580397	-0.22660572128724513	1.975342882737515	-0.45581105917018183	-0.2301168481696426	2.037086188735677	-0.533569711315188	-0.24500764006479003	1.9722275021043802	-0.3725577622613608	-0.26213627883860685	1.8905349873139994	-0.33523146726524333	-0.24400527997643803	1.9063769403601254	-0.46432531031953556	-1.706478673374583	1.888379388447494	1.1277012223120308	-0.19315429047769014	1.9201867422658943	-0.5450756644637158	-0.20690117973552136	1.9098282512678262	-0.6094610444314732
54	1.8	-0.22472147277916707	1.836811456316309	-0.4295954792902384	-0.23575110467121155	1.832991087747898	-0.3710062817876588																-0.2088963760359225	1.839493188684875	-0.4924416888477995	-0.20804900199919468	1.7220105825977339	-0.5242115981599564	-0.19428384321263756	1.597695917153386	-0.5880047883737706	-0.19605813748924455	1.5674963666964354	-0.6431800398781397	-0.18717239133273858	1.5789303446445735	-0.6616102390627373	-0.19296670168172123	1.5875521799170909	-0.5622560302252336	-0.22731516778505712	1.980134467951541	-0.45939711990910537	-0.22782058215722664	2.042576724016883	-0.5275066098351392	-0.2457671526000451	1.9789103951547213	-0.3767671854940644	-0.25449412788972814	1.9094842671530379	-0.35563601685651974	-0.23547759723140968	1.9222505257493787	-0.5077005328832898	-1.6945305937789037	1.8890464864793064	1.1076421547634179	-0.1966734893326949	1.9230386231561494	-0.5587482275983244	-0.22182974168571437	1.932641488910948	-0.5655562597233211
55	1.8333333333333333	-0.22627111498194089	1.8399660942190388	-0.43669088381510823	-0.23635742160009066	1.8366239388854562	-0.37499403339630755																-0.21131950770370805	1.8427783499809487	-0.49405625076552806	-0.209679180974045	1.7244643092866805	-0.5227825518076756	-0.19450481700586061	1.6020126821555951	-0.5712739110226428	-0.19880449630390248	1.5708085177215667	-0.6282785342968933	-0.19192666488343493	1.5858459398298392	-0.6407778514241488	-0.19296670168172123	1.5875521799170909	-0.5622560302252336	-0.22620159528896774	1.982140515265561	-0.45621543449803176	-0.22683285496902234	2.043227114507977	-0.5156970881921062	-0.24461459856478576	1.9839893444482013	-0.37464602169509464	-0.2582732563185874	1.912793346329425	-0.38383135272210706	-0.23033010761754164	1.929612225872848	-0.5274540984522996	-1.7092252864461643	1.8911793611231889	1.1310321600960007	-0.1965836678198051	1.9251283032114495	-0.5586576888825477	-0.21011364553250966	1.940127190921655	-0.5805387239913692
56	1.8666666666666667	-0.2233334246066139	1.838868904849475	-0.444684524589643	-0.23758726014118922	1.8342038729549288	-0.3871853338161232																-0.20829291173060205	1.8432328053598308	-0.5018797896707268	-0.20989122196226032	1.723520407292523	-0.5224326686339578	-0.19421541095827344	1.5964946376949407	-0.5621376587127584	-0.20216740681305442	1.5673340550941324	-0.6202413236421318	-0.19251867842785444	1.578464670688485	-0.6356208543201208	-0.19296670168172123	1.5875521799170909	-0.5622560302252336	-0.226274067070161	1.9821498596440452	-0.45670208534999035	-0.22598830916045892	2.0427661191342166	-0.5124720573310066	-0.24384229019542308	1.9816785992975834	-0.3795352078154171	-0.2576164572206155	1.911144122101219	-0.39760518027838804	-0.2283067478852378	1.9211499605820872	-0.5286751208165362	-1.7203631772135817	1.8911238457924626	1.1500722805322035	-0.19340816588768342	1.926963003335986	-0.5574131283815161	-0.2047013412419084	1.9447796500656924	-0.5820024372661438
57	1.9	-0.22278002154365634	1.8359865954035308	-0.4498539225036995	-0.23603471957960287	1.8331131295255971	-0.3978487219655573																-0.2076431083538445	1.8421947250952637	-0.5071865198417252	-0.20985768631896073	1.7172510524744278	-0.5218386886155428	-0.19663457942993648	1.592649447995777	-0.5585267291009632	-0.2046573982454244	1.5661145453315777	-0.617403388212968	-0.19381728633194625	1.5756563244706596	-0.6299690711071623	-0.19296670168172123	1.5875521799170909	-0.5622560302252336	-0.22342228439869222	1.9821793997394856	-0.46418019302060226	-0.22596969005351744	2.0428270216089026	-0.5125068411054167	-0.24510142340311453	1.979652886850375	-0.39106325077097603	-0.24811898922887504	1.911111560810266	-0.40886183840601464	-0.21503095986073473	1.9181582441080005	-0.5472488891984629	-0.1979554464552454	1.98464750863156	-0.5313609892207137	-0.19511239047684356	1.926310324741889	-0.5818744131139139	-0.2018689077116328	1.9409288101534448	-0.5804050165635872
58	1.9333333333333333	-0.2190439343373206	1.836520739380706	-0.46273267673952817	-0.23356973462050037	1.832371473331578	-0.405471315206114																-0.2086506602079719	1.8396506241342105	-0.5188763384940805	-0.20578385568081234	1.7120993887197191	-0.5256780724423916	-0.1967831981726647	1.5905256913594328	-0.5582149676597029	-0.20304553018997154	1.565950373685295	-0.6191455791712619	-0.19306566357169966	1.5753433105474413	-0.6347184107760558	-0.19296670168172123	1.5875521799170909	-0.5622560302252336	-0.21766498884590837	1.9794948335493767	-0.4706621891842234	-0.22400278090721715	2.043060336884878	-0.5147857912454701	-0.2416393727178984	1.9770498994056602	-0.4035982979641501	-0.24871567978519937	1.9066820747069608	-0.40205337790591755	-0.23145129875872306	1.8885654607599827	-0.513081956622673	-1.7156978991455187	1.8913185490690017	1.144631015747051	-0.186868533280281	1.9343055400014413	-0.5653100837670445	-0.203389337963141	1.9096331977854437	-0.579526731934111
59	1.9666666666666666	-0.22177090049820505	1.834346580469392	-0.4817249615711612	-0.23272357186878834	1.8332519312686526	-0.42900210827801066																-0.20308661116179932	1.8387514260239954	-0.538186948254612	-0.2020011430829601	1.7150966193966775	-0.5305374696807069	-0.1966061274773785	1.589961948720506	-0.5582917994257232	-0.20273285306439714	1.564671735265755	-0.6191601205968542	-0.19196446284644966	1.5744773424263279	-0.6315931691277051	-0.19296670168172123	1.5875521799170909	-0.5622560302252336	-0.21455287872232232	1.9801054454527516	-0.47842755513345275	-0.22480106585567317	2.0438024422939307	-0.5263976775119216	-0.23702708013519502	1.9759565526980005	-0.41352162672159565	-0.24658778842531445	1.9074597058117049	-0.42796452670095114	-0.24067052991157714	1.867849675950481	-0.5102170102951964	-1.6903341092778912	1.891426808316149	1.1035289055308444	-0.18178970145464807	1.926227343957611	-0.5752480900785357	-0.20328856127678624	1.8772180009707509	-0.5816266525528766
60	2.0	-0.21819701171153905	1.8363001316539953	-0.5013534569286722	-0.22939582307121703	1.834367663717619	-0.4486133588208684																-0.19937872320146535	1.8388789724115246	-0.5544827698158438	-0.20255692841172998	1.7140140678587672	-0.542987837950118	-0.19552526781070548	1.590979369506667	-0.5596812065382526	-0.20362278887943566	1.566804161369629	-0.622760629575853	-0.19273793197234423	1.576431467734751	-0.6352822102936493	-0.19296670168172123	1.5875521799170909	-0.5622560302252336	-1.7544605959936654	1.8904841630823925	1.2015624644286733	-0.22560176638371146	2.043819362421454	-0.5379950760033488	-0.2362323028822916	1.9769011936957634	-0.42762492520849604	-0.24486896709763173	1.901608872741717	-0.43814803763293225	-0.24963874327916208	1.8529410947518472	-0.47175333355916726	-1.6277370712310109	1.8919109582258438	1.0022099902319368	-0.1808709060511892	1.919753375783621	-0.6011073261223723	-0.18701625494262053	1.8545592730619465	-0.6299110176654901
61	2.033333333333333	-0.21462312292487304	1.8382536828385987	-0.5209819522861833	-0.2260680742736457	1.8354833961665853	-0.4682246093637262																-0.20004681361427615	1.8400786906988975	-0.5758495518586676	-0.20096105089636127	1.7220950241786608	-0.5540513501979208	-0.19444440814403247	1.591996790292828	-0.5610706136507819	-0.20078453853805744	1.5656220172784236	-0.6214043829663978	-0.1929400810158243	1.574981077941533	-0.6347822445801716	-0.19296670168172123	1.5875521799170909	-0.5622560302252336	-1.7411286037264602	1.8905718904260764	1.1795206589982827	-0.22049033407129515	2.0461031122443814	-0.5482038719871454	-0.23639198807703415	1.9773589255365793	-0.4451227152751402	-0.24396552274825142	1.9025234190984004	-0.43516444906665913	-0.258606956646747	1.8380325135532136	-0.43328965682313814	-1.613580784999263	1.8922047243586448	0.9797900347551647	-0.1764431034187559	1.9174121013145702	-0.6140706598040466	-0.1680292181266241	1.8567766912923613	-0.6542852956166417
62	2.066666666666667	-0.20775196859732292	1.841383080737448	-0.53726057844965	-0.2226871080546729	1.839226523478262	-0.48552756179953754																-0.19024333440644756	1.8444666627366215	-0.5911903778590172	-0.1961594074634554	1.7197144300344227	-0.5676033286181879	-0.1943921113528842	1.591950110966984	-0.5611245728188871	-0.20072033543141682	1.565513502498672	-0.6214004115752463	-0.192975623934806	1.5752284413035342	-0.6347781648902712	-0.19296670168172123	1.5875521799170909	-0.5622560302252336	-1.706104129552291	1.8905736676517704	1.121037631071317	-0.21722511978438264	2.045991746379111	-0.5555629700575607	-0.23252269039364745	1.9776624678110009	-0.45818771533588953	-0.24644613612669433	1.903593925391303	-0.4358946232284786	-0.2686353729999227	1.84246739147555	-0.425169737367796	-0.18364678884729224	1.986871089661116	-0.605338306676889	-0.17253112691108116	1.9195454824821954	-0.6307271108456549	-0.15220008210743205	1.853666320102811	-0.6755359682664909
63	2.1	-0.20466968805629931	1.8395188739792079	-0.5448744310666502	-0.22365830228814274	1.8366274892906438	-0.48863411241160637																-0.18965575579938126	1.8431219696795003	-0.599910681629839	-0.19187401938338397	1.7188061580258727	-0.5723735897901558	-0.19437112738708096	1.5920419257282021	-0.5612308230558016	-0.19862588091496966	1.5658225609330274	-0.6236066814193817	-0.19190355149243357	1.5746162949901297	-0.6316842443232729	-0.19296670168172123	1.5875521799170909	-0.5622560302252336	-1.6572040938243378	1.8888324111293406	1.0402881652709723	-0.21775730125954051	2.0467093121041553	-0.5756342462527481	-0.22946160545502872	1.9782286673607554	-0.4655789399736978	-0.24724793025214856	1.9034629435704975	-0.4388628256821446	-0.26765976378286627	1.8387282009152428	-0.42625160962422537	-0.1811489694236729	1.9860521484856002	-0.6164563901696283	-0.1669213978917327	1.9181766390159851	-0.6520468506945875	-0.14677068839973714	1.8573348712056095	-0.6894195787715686
